<?xml version="1.0" encoding="UTF-8" standalone="no"?>
<svg
   width="256"
   height="256"
   viewBox="0 0 61.44 61.44"
   fill="none"
   version="1.1"
   id="svg7"
   sodipodi:docname="heyday.svg"
   inkscape:version="1.4.2 (ebf0e940d0, 2025-05-08)"
   xmlns:inkscape="http://www.inkscape.org/namespaces/inkscape"
   xmlns:sodipodi="http://sodipodi.sourceforge.net/DTD/sodipodi-0.dtd"
   xmlns="http://www.w3.org/2000/svg"
   xmlns:svg="http://www.w3.org/2000/svg"
   xmlns:rdf="http://www.w3.org/1999/02/22-rdf-syntax-ns#"
   xmlns:cc="http://creativecommons.org/ns#"
   xmlns:dc="http://purl.org/dc/elements/1.1/">
  <defs
     id="defs7" />
  <sodipodi:namedview
     id="namedview7"
     pagecolor="#ffffff"
     bordercolor="#000000"
     borderopacity="0.25"
     inkscape:showpageshadow="2"
     inkscape:pageopacity="0.0"
     inkscape:pagecheckerboard="0"
     inkscape:deskcolor="#d1d1d1"
     inkscape:zoom="0.70710678"
     inkscape:cx="158.39192"
     inkscape:cy="245.36605"
     inkscape:current-layer="svg7" />
  <title
     id="title1">Dove releasing a package logo</title>
  <metadata
     id="metadata7">
    <rdf:RDF>
      <cc:Work
         rdf:about="">
        <dc:title>Dove releasing a package logo</dc:title>
      </cc:Work>
    </rdf:RDF>
  </metadata>
  <g
     id="g3"
     transform="matrix(2.8061416,0,0,2.8061416,-2.953697,-3.2835244)">
    <path
       sodipodi:type="star"
       style="font-variation-settings:'opsz' 32;opacity:0.953035;fill:#ffe6d5;stroke-width:0.984718;stroke-linecap:round;stroke-linejoin:round;paint-order:fill markers stroke"
       id="path3"
       inkscape:flatsided="true"
       sodipodi:sides="7"
       sodipodi:cx="-8.5701342"
       sodipodi:cy="-26.389225"
       sodipodi:r1="8.4869785"
       sodipodi:r2="7.6465034"
       sodipodi:arg1="1.5707963"
       sodipodi:arg2="2.0195953"
       inkscape:rounded="0.62"
       inkscape:randomized="2.7755576e-17"
       d="m -8.5701339,-17.902246 c -4.5661291,0 -3.7884521,0.374509 -6.6353871,-3.195434 -2.846935,-3.569943 -2.654865,-2.728429 -1.638805,-7.180075 1.016059,-4.451647 0.47789,-3.776804 4.59183,-5.757973 4.1139395,-1.98117 3.2507836,-1.981169 7.3647236,-1e-6 4.11394001,1.981169 3.5757711,1.306327 4.59183045,5.757973 1.01605937,4.451647 1.20812961,3.610132 -1.63880505,7.180075 -2.8469347,3.569944 -2.0692581,3.195434 -6.6353869,3.195435 z"
       inkscape:transform-center-y="-0.50255949"
       transform="matrix(1.0871938,0,0,1.0871938,21.317396,41.152454)" />
    <g
       id="g1"
       transform="matrix(0.96195308,0,0,0.96195308,2.1499051,1.2765426)">
      <g
         id="g11"
         transform="translate(0.65812842,1.4443774)"
         style="fill:none;stroke:#483737;stroke-width:1.48568">
        <path
           style="font-variation-settings:'opsz' 32;opacity:1;fill:none;stroke:#483737;stroke-width:1.48568;stroke-linecap:round;stroke-linejoin:round;paint-order:fill markers stroke"
           d="m 5.9795125,9.1106955 c 0.014704,0.7944822 -0.5221472,1.5013655 -0.8096808,2.2421375 -0.1991983,0.513194 -0.9522608,1.075865 -0.633921,1.524983 1.2481653,1.76093 6.4649763,-0.364959 6.4649763,-0.364959 0,0 2.763256,-0.625643 3.232488,-1.407696 C 14.702607,10.323107 9.0296439,5.1681617 5.6307857,5.5265119 5.2641542,5.5651668 4.1709526,5.474375 4.8487322,6.3085656 5.5265119,7.1427562 5.9608746,8.1036387 5.9795125,9.1106955 Z"
           id="path7"
           sodipodi:nodetypes="aaacsasa" />
      </g>
      <rect
         style="font-variation-settings:'opsz' 32;opacity:1;fill:none;fill-opacity:0.952941;stroke:#483737;stroke-width:0.984719;stroke-linecap:round;stroke-linejoin:round;stroke-opacity:1;paint-order:fill markers stroke"
         id="rect12"
         width="4.2235284"
         height="3.1105058"
         x="14.674295"
         y="11.144168"
         ry="0.38881359"
         transform="rotate(10.43804)" />
      <path
         style="font-variation-settings:'opsz' 32;baseline-shift:baseline;display:inline;overflow:visible;opacity:1;vector-effect:none;fill:#483737;fill-opacity:1;stroke:none;stroke-width:1.87777;stroke-linecap:round;stroke-linejoin:round;paint-order:fill markers stroke;enable-background:accumulate;stop-color:#000000"
         d="M 5.8369579,11.928726 5.9677312,12.5875 c 0.082428,0.415236 0.6284612,0.45431 0.9621178,0.562656 2.2414337,0.727847 6.843558,0.541244 6.843558,0.541244 l -0.08106,-0.511491 z"
         id="path11"
         sodipodi:nodetypes="csaccc" />
    </g>
  </g>
</svg>
